Coordinates
version=1
nRows=12
nColumns=23
inDegrees=yes

Units are S.I. units (second, meters, Newtons, ...)
Angles are in degrees.

endheader
time	pelvis_tilt	pelvis_list	pelvis_rotation	pelvis_tx	pelvis_ty	pelvis_tz	hip_flexion_r	hip_adduction_r	hip_rotation_r	knee_angle_r	knee_angle_r_beta	ankle_angle_r	subtalar_angle_r	mtp_angle_r	hip_flexion_l	hip_adduction_l	hip_rotation_l	knee_angle_l	knee_angle_l_beta	ankle_angle_l	subtalar_angle_l	mtp_angle_l
    120.00000000	    -17.65449440	     -1.83581275	     -1.61379230	      0.03788982	      1.22640143	      0.25672085	     91.44104445	     -3.37984476	     -1.11083478	     96.59085191	      1.68582839	     13.17392124	      0.00000000	      0.00000000	     51.08805322	     -6.30216360	      1.23963494	     65.49356623	      1.14307837	      8.13384953	      0.00000000	      0.00000000
    120.00888900	    -17.52895001	     -1.72531851	     -1.45856150	      0.03788545	      1.22611748	      0.25641095	     90.26713531	     -3.67960185	     -1.32898362	     94.24000677	      1.64479841	     12.89267251	      0.00000000	      0.00000000	     51.92424961	     -5.99474521	      1.70371847	     68.48638183	      1.19531286	      9.03826040	      0.00000000	      0.00000000
    120.01777800	    -17.36010216	     -1.59775423	     -1.29306202	      0.03795688	      1.22590045	      0.25610998	     88.91813477	     -4.00116494	     -1.56242316	     91.79122031	      1.60205902	     12.61748056	      0.00000000	      0.00000000	     52.74479285	     -5.66716370	      2.12598483	     71.45885130	      1.24719223	      9.89447105	      0.00000000	      0.00000000
    120.02666700	    -17.20290076	     -1.45697703	     -1.11607738	      0.03810725	      1.22556889	      0.25587563	     87.48802643	     -4.33388973	     -1.81553634	     89.27610184	      1.55816192	     12.27986670	      0.00000000	      0.00000000	     53.62311257	     -5.32737107	      2.51545988	     74.45374204	      1.29946294	     10.75419138	      0.00000000	      0.00000000
    120.03555600	    -17.04117145	     -1.31937429	     -0.91425424	      0.03834380	      1.22526476	      0.25564243	     85.94979744	     -4.69720721	     -2.11414781	     86.68587883	      1.51295400	     11.86214398	      0.00000000	      0.00000000	     54.53070316	     -4.97678180	      2.88821480	     77.42080967	      1.35124804	     11.57078624	      0.00000000	      0.00000000
    120.04444400	    -16.88633354	     -1.15590328	     -0.70223320	      0.03862877	      1.22492945	      0.25543867	     84.33570628	     -5.08401399	     -2.43465522	     84.04967913	      1.46694364	     11.37366110	      0.00000000	      0.00000000	     55.48742290	     -4.61237476	      3.19996398	     80.36873691	      1.40269907	     12.33547775	      0.00000000	      0.00000000
    120.05333300	    -16.74400250	     -0.86796799	     -0.49201158	      0.03894018	      1.22447673	      0.25535332	     82.71300917	     -5.48444751	     -2.63740879	     81.41949196	      1.42103821	     10.89481895	      0.00000000	      0.00000000	     56.48243067	     -4.18239942	      3.37073035	     83.26504347	      1.45324916	     12.95463493	      0.00000000	      0.00000000
    120.06222200	    -16.62437601	     -0.86307892	     -0.26208779	      0.03924840	      1.22424931	      0.25509433	     80.91131935	     -5.85355796	     -3.24205777	     78.58763078	      1.37161291	     10.08737212	      0.00000000	      0.00000000	     57.58180338	     -3.92395062	      3.76618534	     86.15508868	      1.50368996	     13.81506902	      0.00000000	      0.00000000
    120.07111100	    -16.51734591	     -0.71162275	     -0.07383954	      0.03953403	      1.22386755	      0.25501806	     79.13067575	     -6.19007716	     -3.69655244	     75.80593558	      1.32306317	      9.33461447	      0.00000000	      0.00000000	     58.72599065	     -3.62710848	      3.97474003	     89.01118014	      1.55353816	     14.49003771	      0.00000000	      0.00000000
    120.08000000	    -16.46058462	     -0.58593627	      0.12974512	      0.03980707	      1.22358560	      0.25486017	     77.30970468	     -6.52648329	     -4.21061245	     72.94257323	      1.27308807	      8.43840007	      0.00000000	      0.00000000	     59.95217116	     -3.32417345	      4.20226818	     91.76570069	      1.60161362	     15.16177265	      0.00000000	      0.00000000
    120.08888900	    -16.44364523	     -0.45277165	      0.28308694	      0.04006057	      1.22328755	      0.25477195	     75.48319860	     -6.79672588	     -4.73559047	     70.07344034	      1.22301225	      7.50828348	      0.00000000	      0.00000000	     61.26564674	     -3.07004848	      4.36799527	     94.47193434	      1.64884630	     15.78478774	      0.00000000	      0.00000000
    120.09777800	    -16.50675393	     -0.31677351	      0.34189038	      0.04031628	      1.22310587	      0.25485436	     73.65429048	     -6.93401243	     -5.23706693	     67.10496159	      1.17120252	      6.62347025	      0.00000000	      0.00000000	     62.66749258	     -2.92526425	      4.45831184	     97.04102267	      1.69368536	     16.38956368	      0.00000000	      0.00000000
